<?xml version="1.0" encoding="UTF-8" standalone="no"?>
<!--Generator: Xara Designer (www.xara.com), SVG filter version: 5.0.0.2-->

<svg
   xmlns:dc="http://purl.org/dc/elements/1.1/"
   xmlns:cc="http://creativecommons.org/ns#"
   xmlns:rdf="http://www.w3.org/1999/02/22-rdf-syntax-ns#"
   xmlns:svg="http://www.w3.org/2000/svg"
   xmlns="http://www.w3.org/2000/svg"
   xmlns:sodipodi="http://sodipodi.sourceforge.net/DTD/sodipodi-0.dtd"
   xmlns:inkscape="http://www.inkscape.org/namespaces/inkscape"
   stroke-width="0.501"
   stroke-linejoin="bevel"
   fill-rule="evenodd"
   version="1.1"
   overflow="visible"
   width="18pt"
   height="18pt"
   viewBox="0 0 18 18"
   id="svg92"
   sodipodi:docname="frcurrents_pi.svg"
   inkscape:version="0.92.4 (5da689c313, 2019-01-14)"
   inkscape:export-filename="D:\Documents\Github\frcurrents_pi\data\frcurrents_pi.png"
   inkscape:export-xdpi="192"
   inkscape:export-ydpi="192">
  <metadata
     id="metadata96">
    <rdf:RDF>
      <cc:Work
         rdf:about="">
        <dc:format>image/svg+xml</dc:format>
        <dc:type
           rdf:resource="http://purl.org/dc/dcmitype/StillImage" />
        <dc:title />
      </cc:Work>
    </rdf:RDF>
  </metadata>
  <sodipodi:namedview
     pagecolor="#ffffff"
     bordercolor="#666666"
     borderopacity="1"
     objecttolerance="10"
     gridtolerance="10"
     guidetolerance="10"
     inkscape:pageopacity="0"
     inkscape:pageshadow="2"
     inkscape:window-width="1073"
     inkscape:window-height="786"
     id="namedview94"
     showgrid="false"
     inkscape:zoom="10.527137"
     inkscape:cx="5.9959006"
     inkscape:cy="11.416306"
     inkscape:window-x="0"
     inkscape:window-y="0"
     inkscape:window-maximized="0"
     inkscape:current-layer="svg92" />
  <defs
     id="defs79">
    <marker
       id="DefaultArrow2"
       markerUnits="strokeWidth"
       viewBox="0 0 1 1"
       markerWidth="1"
       markerHeight="1"
       overflow="visible"
       orient="auto">
      <!-- REF_ARROW_STRAIGHT (-2) -->
      <g
         transform="scale(0.0092592592)"
         id="g4">
        <!-- 1/108 -->
        <path
           d="M -9 54 L -9 -54 L 117 0 z"
           id="path2" />
      </g>
    </marker>
    <marker
       id="DefaultArrow3"
       markerUnits="strokeWidth"
       viewBox="0 0 1 1"
       markerWidth="1"
       markerHeight="1"
       overflow="visible"
       orient="auto">
      <!-- REF_ARROW_ANGLED -->
      <g
         transform="scale(0.0092592592)"
         id="g9">
        <path
           d="M -27 54 L -9 0 L -27 -54 L 135 0 z"
           id="path7" />
      </g>
    </marker>
    <marker
       id="DefaultArrow4"
       markerUnits="strokeWidth"
       viewBox="0 0 1 1"
       markerWidth="1"
       markerHeight="1"
       overflow="visible"
       orient="auto">
      <!-- REF_ARROW_ROUNDED -->
      <g
         transform="scale(0.0092592592)"
         id="g14">
        <path
           d="M -9,0 L -9,-45 C -9,-51.708 2.808,-56.580 9,-54 L 117,-9 C 120.916,-7.369 126.000,-4.242 126,0 C 126,4.242 120.916,7.369 117,9 L 9,54 C 2.808,56.580 -9,51.708 -9,45 z"
           id="path12" />
      </g>
    </marker>
    <marker
       id="DefaultArrow5"
       markerUnits="strokeWidth"
       viewBox="0 0 1 1"
       markerWidth="1"
       markerHeight="1"
       overflow="visible"
       orient="auto">
      <!-- REF_ARROW_SPOT -->
      <g
         transform="scale(0.0092592592)"
         id="g19">
        <path
           d="M -54, 0 C -54,29.807 -29.807,54 0,54 C 29.807,54 54,29.807 54,0 C 54,-29.807 29.807,-54 0,-54 C -29.807,-54 -54,-29.807 -54,0 z"
           id="path17" />
      </g>
    </marker>
    <marker
       id="DefaultArrow6"
       markerUnits="strokeWidth"
       viewBox="0 0 1 1"
       markerWidth="1"
       markerHeight="1"
       overflow="visible"
       orient="auto">
      <!-- REF_ARROW_DIAMOND -->
      <g
         transform="scale(0.0092592592)"
         id="g24">
        <path
           d="M -63,0 L 0,63 L 63,0 L 0,-63 z"
           id="path22" />
      </g>
    </marker>
    <marker
       id="DefaultArrow7"
       markerUnits="strokeWidth"
       viewBox="0 0 1 1"
       markerWidth="1"
       markerHeight="1"
       overflow="visible"
       orient="auto">
      <!-- REF_ARROW_FEATHER -->
      <g
         transform="scale(0.0092592592)"
         id="g29">
        <path
           d="M 18,-54 L 108,-54 L 63,0 L 108,54 L 18, 54 L -36,0 z"
           id="path27" />
      </g>
    </marker>
    <marker
       id="DefaultArrow8"
       markerUnits="strokeWidth"
       viewBox="0 0 1 1"
       markerWidth="1"
       markerHeight="1"
       overflow="visible"
       orient="auto">
      <!-- REF_ARROW_FEATHER2 -->
      <g
         transform="scale(0.0092592592)"
         id="g34">
        <path
           d="M -36,0 L 18,-54 L 54,-54 L 18,-18 L 27,-18 L 63,-54 L 99,-54 L 63,-18 L 72,-18 L 108,-54 L 144,-54 L 90,0 L 144,54 L 108,54 L 72,18 L 63,18 L 99,54 L 63,54 L 27,18 L 18,18 L 54,54 L 18,54 z"
           id="path32" />
      </g>
    </marker>
    <marker
       id="DefaultArrow9"
       markerUnits="strokeWidth"
       viewBox="0 0 1 1"
       markerWidth="1"
       markerHeight="1"
       overflow="visible"
       orient="auto">
      <!-- REF_ARROW_HOLLOWDIAMOND -->
      <g
         transform="scale(0.0092592592)"
         id="g39">
        <path
           d="M 0,45 L -45,0 L 0, -45 L 45, 0 z M 0, 63 L-63, 0 L 0, -63 L 63, 0 z"
           id="path37" />
      </g>
    </marker>
    <filter
       id="StainedFilter">
      <feBlend
         mode="multiply"
         in2="BackgroundImage"
         in="SourceGraphic"
         result="blend"
         id="feBlend42" />
      <feComposite
         in="blend"
         in2="SourceAlpha"
         operator="in"
         result="comp"
         id="feComposite44" />
    </filter>
    <filter
       id="BleachFilter">
      <feBlend
         mode="screen"
         in2="BackgroundImage"
         in="SourceGraphic"
         result="blend"
         id="feBlend47" />
      <feComposite
         in="blend"
         in2="SourceAlpha"
         operator="in"
         result="comp"
         id="feComposite49" />
    </filter>
    <filter
       id="InvertTransparencyBitmapFilter">
      <feComponentTransfer
         id="feComponentTransfer58">
        <feFuncR
           type="gamma"
           amplitude="1.055"
           exponent=".416666666"
           offset="-0.055"
           id="feFuncR52" />
        <feFuncG
           type="gamma"
           amplitude="1.055"
           exponent=".416666666"
           offset="-0.055"
           id="feFuncG54" />
        <feFuncB
           type="gamma"
           amplitude="1.055"
           exponent=".416666666"
           offset="-0.055"
           id="feFuncB56" />
      </feComponentTransfer>
      <feComponentTransfer
         id="feComponentTransfer68">
        <feFuncR
           type="linear"
           slope="-1"
           intercept="1"
           id="feFuncR60" />
        <feFuncG
           type="linear"
           slope="-1"
           intercept="1"
           id="feFuncG62" />
        <feFuncB
           type="linear"
           slope="-1"
           intercept="1"
           id="feFuncB64" />
        <feFuncA
           type="linear"
           slope="1"
           intercept="0"
           id="feFuncA66" />
      </feComponentTransfer>
      <feComponentTransfer
         id="feComponentTransfer76">
        <feFuncR
           type="gamma"
           amplitude="1"
           exponent="2.4"
           offset="0"
           id="feFuncR70" />
        <feFuncG
           type="gamma"
           amplitude="1"
           exponent="2.4"
           offset="0"
           id="feFuncG72" />
        <feFuncB
           type="gamma"
           amplitude="1"
           exponent="2.4"
           offset="0"
           id="feFuncB74" />
      </feComponentTransfer>
    </filter>
  </defs>
  <text
     xml:space="preserve"
     style="font-size:14px;line-height:1.25;fill:#282828;stroke-width:0.37575001"
     x="10.755789"
     y="5.9608498"
     id="text3762"><tspan
       sodipodi:role="line"
       id="tspan3760"
       x="10.755789"
       y="18.347569"
       style="stroke-width:0.37575001" /></text>
  <text
     xml:space="preserve"
     style="font-size:8px;line-height:1.25;fill:#282828;stroke-width:0.37575001;-inkscape-font-specification:Arial;font-family:Arial;font-weight:normal;font-style:normal;font-stretch:normal;font-variant:normal;"
     x="10.603008"
     y="5.4108377"
     id="text3766"><tspan
       sodipodi:role="line"
       id="tspan3764"
       x="10.603008"
       y="12.488962"
       style="stroke-width:0.37575001;-inkscape-font-specification:Arial;font-family:Arial;font-weight:normal;font-style:normal;font-stretch:normal;font-variant:normal;" /></text>
  <text
     xml:space="preserve"
     style="font-style:normal;font-variant:normal;font-weight:normal;font-stretch:normal;font-size:6px;line-height:1.25;font-family:Arial;-inkscape-font-specification:Arial;fill:#ffffff;stroke-width:0.37575001;"
     x="11.122463"
     y="5.9914064"
     id="text3770"><tspan
       sodipodi:role="line"
       id="tspan3768"
       x="11.122463"
       y="13.197442"
       style="fill:#ffffff;stroke-width:0.37575001;font-size:6px;" /></text>
  <text
     xml:space="preserve"
     style="font-style:normal;font-variant:normal;font-weight:normal;font-stretch:normal;font-size:6px;line-height:1.25;font-family:Arial;-inkscape-font-specification:Arial;fill:#ffffff;stroke-width:0.37575001"
     x="9.8696585"
     y="5.7164001"
     id="text3774"><tspan
       sodipodi:role="line"
       id="tspan3772"
       x="9.8696585"
       y="11.120927"
       style="stroke-width:0.37575001" /></text>
  <path
     style="fill:#282828;fill-opacity:1;stroke-width:0.03270959"
     d=""
     id="path3785"
     inkscape:connector-curvature="0"
     transform="scale(0.75)" />
  <path
     transform="scale(0.75)"
     inkscape:connector-curvature="0"
     id="path3793"
     d=""
     style="fill:#282828;fill-opacity:1;stroke-width:0.03270959" />
  <rect
     style="fill:#1a1a1a;fill-opacity:1;stroke-width:0.37575001"
     id="rect3795"
     width="18.166555"
     height="18.11759"
     x="-0.04896646"
     y="-0.019657155" />
  <path
     d="M 3.0664569,4.8718116 0.46965698,7.3418141 7.77822,14.310112 l -0.7700853,0.731582 5.6489993,1.444488 -1.511175,-5.380903 -0.772644,0.734018 z"
     stroke-miterlimit="79.8403193612775"
     id="path87"
     inkscape:connector-curvature="0"
     style="font-size:16px;font-family:'Times New Roman';fill:none;stroke:#b4b4b4;stroke-width:0.62410253;stroke-linejoin:miter;stroke-miterlimit:79.84031677;marker-start:none;marker-end:none" />
  <text
     xml:space="preserve"
     style="font-style:normal;font-variant:normal;font-weight:bold;font-stretch:normal;font-size:8px;line-height:1.25;font-family:sans-serif;-inkscape-font-specification:'sans-serif Bold';fill:#f9f9f9;fill-opacity:1;stroke-width:0.37575001"
     x="6.4553204"
     y="6.3285165"
     id="text3805"><tspan
       sodipodi:role="line"
       id="tspan3803"
       x="6.4553204"
       y="6.3285165"
       style="font-size:8px;fill:#f9f9f9;stroke-width:0.37575001">FR</tspan></text>
  <path
     style="fill:#b4b4b4;fill-opacity:1;stroke-width:0.02969808"
     d="M 9.6093855,4.5693621 V 0.71631788 H 12.276878 14.94437 V 1.4276491 2.1389804 h -1.691183 -1.691183 l 0.01659,0.7557894 0.01659,0.7557894 1.585676,0.015788 1.585676,0.015788 V 4.3924981 5.1028612 H 13.166041 11.565545 V 6.7626341 8.422407 h -0.97808 -0.9780805 z"
     id="path64"
     inkscape:connector-curvature="0"
     transform="scale(0.75)" />
  <path
     style="fill:#b4b4b4;fill-opacity:1;stroke-width:0.02969808"
     d="M 16.900531,4.5693621 V 0.71631788 l 1.941341,0.001029 c 2.182017,0.001157 2.513025,0.0407355 3.11826,0.37285012 0.632402,0.3470221 0.977845,1.0468727 0.912236,1.8481454 -0.06783,0.8284388 -0.370548,1.305469 -1.035016,1.6310194 -0.232905,0.1141094 -0.425321,0.2253583 -0.427593,0.2472199 -0.0023,0.021861 0.08134,0.058522 0.185815,0.081467 0.116798,0.025653 0.318365,0.1701392 0.523422,0.3751955 0.286605,0.286605 0.430707,0.5268104 1.025245,1.7089932 0.380473,0.756534 0.691769,1.3900634 0.691769,1.4078425 0,0.017779 -0.460963,0.032326 -1.024363,0.032326 H 21.787284 L 21.196836,7.2312074 C 20.405792,5.6353185 20.213501,5.4596471 19.256815,5.4588567 l -0.400123,-3.306e-4 v 1.4819401 1.4819401 h -0.978081 -0.97808 z m 3.55971,-0.5692476 c 0.304435,-0.1782693 0.430767,-0.3942866 0.45902,-0.7848874 0.01878,-0.259602 -0.0046,-0.4152401 -0.09189,-0.6126609 C 20.654601,2.2120019 20.423392,2.119038 19.553203,2.0902545 l -0.696511,-0.023039 v 1.0517386 1.0517386 l 0.705762,-0.029067 c 0.548125,-0.022574 0.748652,-0.054182 0.897787,-0.1415112 z"
     id="path66"
     inkscape:connector-curvature="0"
     transform="scale(0.75)" />
</svg>
