<?xml version="1.0" encoding="UTF-8" standalone="no"?>
<!-- Created with Inkscape (http://www.inkscape.org/) -->

<svg
   width="8.4666662mm"
   height="8.4666662mm"
   viewBox="0 0 8.4666661 8.4666662"
   version="1.1"
   id="svg1"
   inkscape:version="1.4 (86a8ad7, 2024-10-11)"
   sodipodi:docname="HW12.svg"
   xmlns:inkscape="http://www.inkscape.org/namespaces/inkscape"
   xmlns:sodipodi="http://sodipodi.sourceforge.net/DTD/sodipodi-0.dtd"
   xmlns="http://www.w3.org/2000/svg"
   xmlns:svg="http://www.w3.org/2000/svg">
  <sodipodi:namedview
     id="namedview1"
     pagecolor="#ffffff"
     bordercolor="#000000"
     borderopacity="0.25"
     inkscape:showpageshadow="2"
     inkscape:pageopacity="0.0"
     inkscape:pagecheckerboard="0"
     inkscape:deskcolor="#d1d1d1"
     inkscape:document-units="mm"
     inkscape:zoom="14.593751"
     inkscape:cx="15.999999"
     inkscape:cy="18.432547"
     inkscape:window-width="1920"
     inkscape:window-height="1156"
     inkscape:window-x="-12"
     inkscape:window-y="-12"
     inkscape:window-maximized="1"
     inkscape:current-layer="svg1"
     showguides="false" />
  <defs
     id="defs1">
    <linearGradient
       id="swatch7"
       inkscape:swatch="solid">
      <stop
         style="stop-color:#ac9d93;stop-opacity:1;"
         offset="0"
         id="stop8" />
    </linearGradient>
  </defs>
  <g
     id="g3">
    <g
       id="g2">
      <rect
         style="fill:#b3b3b3;fill-opacity:1;fill-rule:evenodd;stroke-width:0.216032"
         id="rect2"
         width="8.4666662"
         height="8.4666662"
         x="0"
         y="0" />
    </g>
    <g
       id="g1">
      <path
         d="M 7.4511186,2.7783054 6.9005483,2.83903 Q 6.8803067,2.669001 6.7952922,2.5880348 6.7102777,2.5070686 6.5746593,2.5070686 q -0.1801498,0 -0.3056475,0.1619324 -0.1234734,0.1619324 -0.1558599,0.6740437 0.2125363,-0.2509952 0.5283045,-0.2509952 0.3562514,0 0.6092708,0.2712368 0.2550435,0.2712368 0.2550435,0.7003577 0,0.455435 -0.2671885,0.7307201 -0.2671885,0.2752851 -0.6861886,0.2752851 -0.4493625,0 -0.7388167,-0.3481547 -0.2894542,-0.3501789 -0.2894542,-1.1456719 0,-0.8157346 0.3015991,-1.1760343 0.3015992,-0.3602996 0.7833481,-0.3602996 0.338034,0 0.5586669,0.1902706 0.2226571,0.1882464 0.2833818,0.5485461 z m -1.289387,1.2408072 q 0,0.2773093 0.1275218,0.4291209 0.1275218,0.1497875 0.2914784,0.1497875 0.1578841,0 0.2631401,-0.1234734 Q 6.949128,4.3510741 6.949128,4.0697165 6.949128,3.7802623 6.8357753,3.646668 6.7224226,3.5110496 6.5523936,3.5110496 q -0.1639566,0 -0.2773093,0.129546 -0.1133527,0.1275218 -0.1133527,0.378517 z M 2.7247158,4.5919486 V 3.8207454 H 1.9474402 V 3.2883925 H 2.7247158 V 2.5171893 H 3.2428996 V 3.2883925 H 4.0221994 V 3.8207454 H 3.2428996 v 0.7712032 z"
         id="text1"
         style="font-weight:bold;font-size:4.14547px;line-height:3.88639px;font-family:Arial;-inkscape-font-specification:'Arial, Bold';text-align:end;direction:rtl;text-anchor:end;fill:#0038ff;stroke:#002575;stroke-width:0.0953818;paint-order:stroke fill markers"
         transform="scale(0.83966166,1.1909559)"
         aria-label="6 +" />
    </g>
  </g>
  <g
     inkscape:groupmode="layer"
     id="layer1"
     inkscape:label="Layer 1" />
</svg>
