<?xml version="1.0" encoding="UTF-8" standalone="no"?>
<!-- Created with Inkscape (http://www.inkscape.org/) -->

<svg
   width="8.4972515mm"
   height="8.4765358mm"
   viewBox="0 0 8.4972515 8.4765358"
   version="1.1"
   id="svg1"
   xml:space="preserve"
   inkscape:version="1.4 (86a8ad7, 2024-10-11)"
   sodipodi:docname="info_bleu.svg"
   inkscape:export-filename="info2.png"
   inkscape:export-xdpi="96"
   inkscape:export-ydpi="96"
   xmlns:inkscape="http://www.inkscape.org/namespaces/inkscape"
   xmlns:sodipodi="http://sodipodi.sourceforge.net/DTD/sodipodi-0.dtd"
   xmlns="http://www.w3.org/2000/svg"
   xmlns:svg="http://www.w3.org/2000/svg"><sodipodi:namedview
     id="namedview1"
     pagecolor="#ffffff"
     bordercolor="#000000"
     borderopacity="0.25"
     inkscape:showpageshadow="2"
     inkscape:pageopacity="0.0"
     inkscape:pagecheckerboard="0"
     inkscape:deskcolor="#d1d1d1"
     inkscape:document-units="mm"
     inkscape:zoom="9.5270401"
     inkscape:cx="16.112035"
     inkscape:cy="15.954588"
     inkscape:window-width="1920"
     inkscape:window-height="1156"
     inkscape:window-x="-12"
     inkscape:window-y="-12"
     inkscape:window-maximized="1"
     inkscape:current-layer="svg1" /><defs
     id="defs1" /><g
     id="g1"><rect
       style="fill:#b3b3b3;fill-rule:evenodd;stroke-width:0.265765"
       id="rect1"
       width="8.4666662"
       height="8.4666662"
       x="-7.3242191e-08"
       y="2.9785156e-07" /><path
       id="path8"
       style="fill:#004fd4;stroke-width:0.248047;fill-opacity:1"
       d="M 3.85989,0.2965 C 1.70422,0.45123 -0.02362,2.61343 0.31788,4.7524 0.53715,6.9207 2.78879,8.57711 4.92229,8.14213 7.0979,7.82764 8.66199,5.46264 8.09522,3.33622 7.68558,1.43979 5.78553,0.08287 3.85989,0.2965 Z" /><path
       id="path7"
       style="fill:#b3b3b3;stroke-width:0.212002;stroke-dasharray:none;paint-order:stroke fill markers"
       d="m 4.23331,1.05833 c -1.75432,0 -3.17498,1.42065 -3.17498,3.17497 0,1.75433 1.42066,3.17503 3.17498,3.17503 1.75434,0 3.17502,-1.4207 3.17502,-3.17503 0,-1.75432 -1.42068,-3.17497 -3.17502,-3.17497 z m 0.2746,1.2056 c 0.27168,0 0.49234,0.2206 0.49234,0.4923 0,0.27164 -0.22066,0.49229 -0.49234,0.49229 -0.27181,0 -0.49241,-0.22065 -0.49241,-0.49229 0,-0.2717 0.2206,-0.4923 0.49241,-0.4923 z M 3.89765,3.57056 c 0.0691,-0.003 0.14392,1.5e-4 0.22528,0.007 C 4.51046,3.60486 4.6822,3.7731 4.56157,4.67265 4.46207,4.92294 4.2764,5.6494 4.34369,5.76784 c 0.0911,0.16679 0.46816,-0.0112 0.65656,0 0.16405,0.009 -0.0879,0.43611 -0.65656,0.43611 -0.20183,0 -0.6028,0.006 -0.76679,-0.21784 -0.16148,-0.22063 -0.0393,-0.78044 0,-0.87728 0,0 0.61333,-1.15971 0.2124,-1.20544 C 3.66829,3.89009 3.6982,4.00029 3.46652,4.01377 3.30505,4.02487 3.28347,3.86843 3.35614,3.79586 3.52559,3.63447 3.68921,3.57881 3.89765,3.57134 Z" /><g
       id="g3"
       transform="translate(-77.092569,-89.048016)" /></g><g
     inkscape:groupmode="layer"
     id="layer2"
     inkscape:label="Layer 1"
     transform="translate(-103.17305,-150.58168)" /><g
     inkscape:label="Calque 1"
     inkscape:groupmode="layer"
     id="layer1"
     transform="translate(-103.17305,-150.58168)" /></svg>
